<?xml version="1.0" encoding="UTF-8"?>
<!DOCTYPE svg PUBLIC "-//W3C//DTD SVG 1.1//EN" "http://www.w3.org/Graphics/SVG/1.1/DTD/svg11.dtd">
<svg xmlns="http://www.w3.org/2000/svg" version="1.1" width="256px" height="256px" style="shape-rendering:geometricPrecision; text-rendering:geometricPrecision; image-rendering:optimizeQuality; fill-rule:evenodd; clip-rule:evenodd" xmlns:xlink="http://www.w3.org/1999/xlink">
<g><path style="opacity:0.968" fill="#b10329" d="M 109.5,-0.5 C 121.5,-0.5 133.5,-0.5 145.5,-0.5C 195.522,8.78164 230.022,37.115 249,84.5C 251.667,92.8385 253.833,101.172 255.5,109.5C 255.5,121.5 255.5,133.5 255.5,145.5C 244.894,199.615 213.227,235.115 160.5,252C 155.046,253.255 149.713,254.422 144.5,255.5C 133.167,255.5 121.833,255.5 110.5,255.5C 60.0636,246.51 25.2303,218.177 6,170.5C 3.33329,162.162 1.16662,153.828 -0.5,145.5C -0.5,133.5 -0.5,121.5 -0.5,109.5C 8.39648,61.7589 35.0631,27.9255 79.5,8C 89.3671,4.20449 99.3671,1.37115 109.5,-0.5 Z"/></g>
<g><path style="opacity:1" fill="#fefcfc" d="M 113.5,22.5 C 158.398,19.3673 193.231,36.3673 218,73.5C 237.285,109.455 237.285,145.455 218,181.5C 193.252,218.788 158.419,235.622 113.5,232C 73.0305,224.855 44.8638,202.355 29,164.5C 12.8462,111.011 27.6795,68.5111 73.5,37C 86.0647,29.6487 99.3981,24.8153 113.5,22.5 Z"/></g>
<g><path style="opacity:1" fill="#b1052a" d="M 114.5,46.5 C 164.064,44.1736 195.23,66.8403 208,114.5C 211.526,157.305 193.693,187.139 154.5,204C 114.05,215.297 81.8829,203.797 58,169.5C 37.7751,130.21 43.6084,95.3765 75.5,65C 87.1411,55.8483 100.141,49.6816 114.5,46.5 Z"/></g>
<g><path style="opacity:1" fill="#fefbfc" d="M 121.5,72.5 C 157.578,73.1854 177.911,91.3521 182.5,127C 179.265,161.069 160.598,179.569 126.5,182.5C 93.2562,178.589 75.2562,159.922 72.5,126.5C 75.6327,96.3731 91.966,78.3731 121.5,72.5 Z"/></g>
<g><path style="opacity:1" fill="#b1062b" d="M 120.5,95.5 C 146.873,94.7067 159.706,107.373 159,133.5C 153.305,152.607 140.472,161.107 120.5,159C 102.138,152.797 93.9712,139.963 96,120.5C 99.6829,107.651 107.85,99.3181 120.5,95.5 Z"/></g>
</svg>
